<svg xmlns="http://www.w3.org/2000/svg" xmlns:xlink="http://www.w3.org/1999/xlink" width="500" zoomAndPan="magnify" viewBox="0 0 375 374.999991" height="500" preserveAspectRatio="xMidYMid meet" version="1.0"><defs><clipPath id="1e56e151c9"><path d="M 4.671875 3 L 370.671875 3 L 370.671875 369 L 4.671875 369 Z M 4.671875 3 " clip-rule="nonzero"/></clipPath></defs><g clip-path="url(#1e56e151c9)"><path fill="#888b8c" d="M 187.496094 368.648438 C 288.46875 368.648438 370.320312 286.796875 370.320312 185.824219 C 370.320312 84.851562 288.46875 3 187.496094 3 C 86.527344 3 4.671875 84.851562 4.671875 185.824219 C 4.671875 286.796875 86.527344 368.648438 187.496094 368.648438 Z M 104.460938 108.042969 L 187.496094 174.472656 L 270.53125 108.042969 L 272.929688 106.046875 L 102.0625 106.046875 Z M 281.8125 121.71875 L 285.003906 119.0625 L 285.003906 256.738281 C 285.003906 261.632812 281.035156 265.601562 276.140625 265.601562 L 98.855469 265.601562 C 93.960938 265.601562 89.992188 261.632812 89.992188 256.738281 L 89.992188 119.0625 L 93.179688 121.71875 L 93.316406 121.832031 L 181.960938 192.746094 C 185.195312 195.335938 189.796875 195.335938 193.035156 192.746094 L 281.675781 121.832031 Z M 281.8125 121.71875 " fill-opacity="1" fill-rule="evenodd"/></g></svg>