<svg xmlns="http://www.w3.org/2000/svg" xmlns:xlink="http://www.w3.org/1999/xlink" width="500" zoomAndPan="magnify" viewBox="0 0 375 374.999991" height="500" preserveAspectRatio="xMidYMid meet" version="1.0"><defs><clipPath id="2f9137be04"><path d="M 5.089844 4.253906 L 369.589844 4.253906 L 369.589844 368 L 5.089844 368 Z M 5.089844 4.253906 " clip-rule="nonzero"/></clipPath></defs><g clip-path="url(#2f9137be04)"><path fill="#888b8c" d="M 187.574219 4.378906 C 86.773438 4.378906 5.089844 86.066406 5.089844 186.867188 C 5.089844 277.398438 71.132812 352.605469 157.554688 366.828125 L 157.554688 243.113281 L 111.105469 243.113281 L 111.105469 188.921875 L 157.554688 188.921875 L 157.554688 149.578125 C 157.554688 106.921875 192.15625 78.007812 234.816406 78.007812 C 253.777344 78.007812 265.625 80.851562 265.625 80.851562 L 265.625 126.355469 L 234.816406 126.355469 C 222.019531 126.355469 211.589844 136.78125 211.589844 149.578125 L 211.589844 188.921875 L 261.359375 188.921875 L 254.410156 243.113281 L 211.589844 243.113281 L 211.589844 367.617188 C 300.859375 355.765625 369.746094 279.296875 369.746094 186.867188 C 369.90625 86.066406 288.21875 4.378906 187.574219 4.378906 Z M 187.574219 4.378906 " fill-opacity="1" fill-rule="nonzero"/></g></svg>