<svg xmlns="http://www.w3.org/2000/svg" xmlns:xlink="http://www.w3.org/1999/xlink" width="500" zoomAndPan="magnify" viewBox="0 0 375 374.999991" height="500" preserveAspectRatio="xMidYMid meet" version="1.0"><defs><clipPath id="3a9dc1364a"><path d="M 4.671875 3.195312 L 369.921875 3.195312 L 369.921875 368.445312 L 4.671875 368.445312 Z M 4.671875 3.195312 " clip-rule="nonzero"/></clipPath></defs><g clip-path="url(#3a9dc1364a)"><path fill="#888b8c" d="M 285.265625 201.820312 C 285.140625 201.832031 285.015625 201.832031 284.890625 201.832031 C 281.617188 201.832031 278.875 199.28125 278.679688 195.96875 C 277.183594 170.667969 266.761719 146.617188 249.355469 128.246094 C 231.941406 109.878906 208.476562 98.1875 183.289062 95.339844 C 179.871094 94.953125 177.417969 91.867188 177.804688 88.449219 C 178.191406 85.03125 181.289062 82.558594 184.695312 82.960938 C 212.792969 86.136719 238.964844 99.179688 258.394531 119.675781 C 277.824219 140.167969 289.445312 167.007812 291.113281 195.234375 C 291.316406 198.671875 288.699219 201.621094 285.265625 201.820312 Z M 181.625 127.925781 C 182.011719 124.511719 185.082031 122.070312 188.519531 122.4375 C 205.25 124.332031 220.84375 132.097656 232.40625 144.304688 C 243.980469 156.511719 250.902344 172.492188 251.898438 189.304688 C 252.097656 192.738281 249.480469 195.6875 246.046875 195.890625 C 245.921875 195.898438 245.796875 195.898438 245.671875 195.898438 C 242.398438 195.898438 239.652344 193.351562 239.460938 190.042969 C 238.640625 176.15625 232.917969 162.957031 223.367188 152.878906 C 213.816406 142.796875 200.941406 136.382812 187.109375 134.816406 C 183.699219 134.433594 181.246094 131.34375 181.625 127.925781 Z M 275.238281 282.171875 C 275.054688 282.363281 267.820312 289.199219 267.625 289.390625 C 254.230469 302.265625 233.1875 304.824219 215.714844 300.730469 C 209.339844 299.238281 203.128906 297.09375 197.121094 294.488281 C 170.023438 282.710938 144.3125 261.878906 123.664062 239.972656 C 102.890625 218.175781 83.464844 191.394531 73.160156 163.703125 C 70.871094 157.5625 69.066406 151.246094 67.914062 144.796875 C 64.761719 127.136719 68.441406 106.257812 82.019531 93.570312 C 82.21875 93.382812 89.429688 86.53125 89.632812 86.351562 C 103.085938 74.539062 114.585938 89.523438 125.308594 101.039062 C 134.46875 110.875 149.859375 127.066406 147.300781 141.851562 C 145.886719 150.0625 137.160156 156.066406 134.128906 164.121094 C 130.265625 174.390625 132.089844 184.625 138.570312 193.40625 C 142.914062 199.285156 148.203125 205.550781 153.847656 211.363281 C 159.351562 217.304688 165.320312 222.925781 170.957031 227.574219 C 179.382812 234.519531 189.5 236.890625 199.964844 233.578125 C 208.167969 230.980469 214.628906 222.59375 222.90625 221.613281 C 237.808594 219.851562 253.15625 236.089844 262.484375 245.761719 C 273.40625 257.089844 287.757812 269.367188 275.238281 282.171875 Z M 187.394531 3.136719 C 86.488281 3.136719 4.683594 84.941406 4.683594 185.851562 C 4.683594 286.761719 86.488281 368.566406 187.394531 368.566406 C 288.308594 368.566406 370.105469 286.761719 370.105469 185.851562 C 370.105469 84.941406 288.308594 3.136719 187.394531 3.136719 " fill-opacity="1" fill-rule="nonzero"/></g></svg>